M48
INCH
T01C.028
T02C.035
T03C.043
;LEADER: 12 
;HEADER: 
;CODE  : ASCII 
;FILE  : RGB_LED_SHIELD_FINAL-1-2.drl for board #Taaaacd08732.tmp ... layers TOP and BOTTOM
;T01 Holesize 1. = 28.000000 Tolerance = +0.000000/-0.000000 PLATED MILS Quantity = 2
;T02 Holesize 2. = 35.000000 Tolerance = +0.000000/-0.000000 PLATED MILS Quantity = 202
;T03 Holesize 3. = 43.000000 Tolerance = +0.000000/-0.000000 PLATED MILS Quantity = 24
%
G90
T01
X0022300Y0006700
X0002230Y0013800
T02
X0001500Y0001500
R07X0001000
X0010100Y0001500
R07X0001000
X0023100Y0001100
R04X0001000
X0029800Y0001100
X0030900Y0001100
X0030900Y0003100
X0030900Y0002100
X0029800Y0003100
X0029800Y0002100
X0027100Y0002200
X0026800Y0003700
X0026100Y0002200
X0025800Y0003700
X0025100Y0002200
R02X-0001000
X0022300Y0003700
X0021300Y0003700
X0018000Y0003700
X0017000Y0003700
X0015900Y0004800
X0015900Y0005800
X0018900Y0004800
X0018900Y0005800
X0020200Y0004800
X0020200Y0005800
X0023200Y0004800
X0023200Y0005800
X0024700Y0004800
X0024700Y0005800
X0027700Y0004800
X0027700Y0005800
X0029800Y0004100
X0030900Y0004100
X0027700Y0007800
X0027700Y0006800
X0024700Y0007800
X0024700Y0006800
X0023200Y0007800
X0023200Y0006800
X0020200Y0007800
X0020200Y0006800
X0018900Y0007800
X0018900Y0006800
X0015900Y0007800
X0015900Y0006800
X0014430Y0006900
R02X-0000750
X0012200Y0006900
X0010730Y0006900
X0009980Y0006900
X0009230Y0006900
X0008500Y0006900
X0007230Y0006900
X0006480Y0006900
X0005730Y0006900
X0005000Y0006900
X0003730Y0006900
X0002980Y0006900
X0002230Y0006900
X0001500Y0006900
X0001500Y0009400
X0002230Y0009400
R02X0000750
X0005000Y0009400
X0005730Y0009400
X0006480Y0009400
X0007230Y0009400
X0008500Y0009400
X0009230Y0009400
X0009980Y0009400
X0010730Y0009400
X0012200Y0009400
X0012930Y0009400
X0013680Y0009400
X0014430Y0009400
X0015900Y0008800
X0015900Y0009800
X0018900Y0008800
X0018900Y0009800
X0020200Y0008800
X0020200Y0009800
X0023200Y0008800
X0023200Y0009800
X0024700Y0008800
X0024700Y0009800
X0027700Y0008800
X0027700Y0009800
X0015900Y0010800
X0015900Y0011800
X0018900Y0010800
X0018900Y0011800
X0020200Y0010800
X0020200Y0011800
X0023200Y0010800
X0023200Y0011800
X0024700Y0010800
X0024700Y0011800
X0027700Y0010800
X0027700Y0011800
X0027700Y0013800
X0027700Y0012800
X0024700Y0013800
X0024700Y0012800
X0023200Y0013800
X0023200Y0012800
X0020200Y0013800
X0020200Y0012800
X0018900Y0013800
X0018900Y0012800
X0015900Y0013800
X0015900Y0012800
X0014430Y0012800
R02X-0000750
X0012200Y0012800
X0010730Y0012800
X0009980Y0012800
X0009230Y0012800
X0008500Y0012800
X0007230Y0012800
X0006480Y0012800
X0005730Y0012800
X0005000Y0012800
X0003730Y0012800
X0002980Y0012800
X0002230Y0012800
X0001500Y0012800
X0001500Y0015300
X0002230Y0015300
R02X0000750
X0005000Y0015300
X0005730Y0015300
X0006480Y0015300
X0007230Y0015300
X0008500Y0015300
X0009230Y0015300
X0009980Y0015300
X0010730Y0015300
X0012200Y0015300
X0012930Y0015300
X0013680Y0015300
X0014430Y0015300
X0015900Y0014800
X0015900Y0015800
X0018900Y0014800
X0018900Y0015800
X0020200Y0014800
X0020200Y0015800
X0023200Y0014800
X0023200Y0015800
X0024700Y0014800
X0024700Y0015800
X0027700Y0014800
X0027700Y0015800
X0027700Y0017800
X0027700Y0016800
X0024700Y0017800
X0024700Y0016800
X0023200Y0017800
X0023200Y0016800
X0020200Y0017800
X0020200Y0016800
X0018900Y0017800
X0018900Y0016800
X0015900Y0017800
X0015900Y0016800
X0019700Y0021800
X0018700Y0021800
X0013500Y0020500
R05X-0001000
X0006500Y0020500
R05X-0001000
T03
X0029200Y0007900
X0030400Y0007900
X0030400Y0011900
X0029200Y0011900
X0029200Y0013300
X0030300Y0013300
X0030300Y0017300
X0029200Y0017300
X0029600Y0019400
X0027830Y0019400
X0026300Y0019400
X0024530Y0019400
X0022800Y0019400
X0021030Y0019400
X0017600Y0019400
X0015830Y0019400
X0015830Y0021960
X0017600Y0021960
X0021030Y0021960
X0022800Y0021960
X0024530Y0021960
X0026300Y0021960
X0027830Y0021960
X0029600Y0021960
M30
