G04 ================== begin FILE IDENTIFICATION RECORD ==================*
G04 Layout Name:  RGB_LED_SHIELD_FINAL.brd*
G04 Film Name:    SOLDERMASKTOP*
G04 File Format:  Gerber RS274X*
G04 File Origin:  Cadence Allegro 17.2-P019*
G04 Origin Date:  Wed Dec 12 14:17:25 2018*
G04 *
G04 Layer:  VIA CLASS/SOLDERMASK_TOP*
G04 Layer:  PIN/SOLDERMASK_TOP*
G04 Layer:  PACKAGE GEOMETRY/SOLDERMASK_TOP*
G04 Layer:  DRC ERROR CLASS/SOLDERMASK_TOP*
G04 Layer:  BOARD GEOMETRY/SOLDERMASK_TOP*
G04 *
G04 Offset:    (0.00 0.00)*
G04 Mirror:    No*
G04 Mode:      Positive*
G04 Rotation:  0*
G04 FullContactRelief:  No*
G04 UndefLineWidth:     10.00*
G04 ================== end FILE IDENTIFICATION RECORD ====================*
%FSLAX25Y25*MOIN*%
%IR0*IPPOS*OFA0.00000B0.00000*MIA0B0*SFA1.00000B1.00000*%
%ADD10C,.07*%
%ADD12C,.056*%
%ADD13C,.084*%
%ADD11R,.07X.07*%
%ADD14R,.084X.084*%
%LPD*%
G75*
G54D10*
X25000Y15000D03*
X29800Y69000D03*
X22300D03*
X29800Y94000D03*
X22300D03*
X29800Y128000D03*
X22300D03*
X29800Y153000D03*
X22300D03*
X25000Y205000D03*
X55000Y15000D03*
X45000D03*
X35000D03*
X57300Y69000D03*
X37300D03*
X57300Y94000D03*
X37300D03*
X57300Y153000D03*
Y128000D03*
X37300D03*
Y153000D03*
X55000Y205000D03*
X45000D03*
X35000D03*
X85000Y15000D03*
X75000D03*
X65000D03*
X92300Y69000D03*
X72300D03*
X64800D03*
X92300Y94000D03*
X72300D03*
X64800D03*
X92300Y128000D03*
Y153000D03*
X72300D03*
X64800D03*
X72300Y128000D03*
X64800D03*
X65000Y205000D03*
X121000Y15000D03*
X111000D03*
X107300Y69000D03*
X99800D03*
X107300Y94000D03*
X99800D03*
X107300Y128000D03*
X99800D03*
X107300Y153000D03*
X99800D03*
X115000Y205000D03*
X105000D03*
X95000D03*
X151000Y15000D03*
X141000D03*
X131000D03*
X144300Y69000D03*
X136800D03*
X129300D03*
X144300Y94000D03*
X136800D03*
X129300D03*
X144300Y153000D03*
X136800D03*
X129300D03*
X144300Y128000D03*
X136800D03*
X129300D03*
X135000Y205000D03*
X125000D03*
X171000Y15000D03*
X161000D03*
X159000Y58000D03*
X180000Y37000D03*
X159000Y88000D03*
Y78000D03*
Y68000D03*
Y118000D03*
Y108000D03*
Y98000D03*
Y148000D03*
Y138000D03*
Y128000D03*
Y178000D03*
Y168000D03*
Y158000D03*
X202000Y58000D03*
X189000Y48000D03*
Y58000D03*
X202000Y88000D03*
Y78000D03*
Y68000D03*
X189000D03*
Y78000D03*
Y88000D03*
X202000Y118000D03*
Y108000D03*
Y98000D03*
X189000D03*
Y108000D03*
Y118000D03*
X202000Y148000D03*
Y138000D03*
Y128000D03*
X189000D03*
Y138000D03*
Y148000D03*
X202000Y178000D03*
Y168000D03*
Y158000D03*
X189000D03*
Y168000D03*
Y178000D03*
X187000Y218000D03*
X241000Y11000D03*
Y22000D03*
X232000Y48000D03*
Y58000D03*
X223000Y37000D03*
X232000Y68000D03*
Y78000D03*
Y88000D03*
Y98000D03*
Y108000D03*
Y118000D03*
Y128000D03*
Y138000D03*
Y148000D03*
Y158000D03*
Y168000D03*
Y178000D03*
X271000Y11000D03*
X261000D03*
X251000D03*
X271000Y22000D03*
X261000D03*
X251000D03*
X247000Y58000D03*
X268000Y37000D03*
X247000Y88000D03*
Y78000D03*
Y68000D03*
Y118000D03*
Y108000D03*
Y98000D03*
Y148000D03*
Y138000D03*
Y128000D03*
Y178000D03*
Y168000D03*
Y158000D03*
X298000Y31000D03*
Y21000D03*
Y41000D03*
X277000Y48000D03*
Y58000D03*
Y68000D03*
Y78000D03*
Y88000D03*
Y98000D03*
Y108000D03*
Y118000D03*
Y128000D03*
Y138000D03*
Y148000D03*
Y158000D03*
Y168000D03*
Y178000D03*
X309000Y31000D03*
Y21000D03*
Y41000D03*
G54D11*
X15000Y15000D03*
Y69000D03*
Y94000D03*
Y128000D03*
Y153000D03*
Y205000D03*
X50000Y69000D03*
Y94000D03*
Y153000D03*
Y128000D03*
X85000Y69000D03*
Y94000D03*
Y128000D03*
Y153000D03*
Y205000D03*
X101000Y15000D03*
X122000Y69000D03*
Y94000D03*
Y153000D03*
Y128000D03*
X159000Y48000D03*
X170000Y37000D03*
X202000Y48000D03*
X213000Y37000D03*
X197000Y218000D03*
X231000Y11000D03*
Y22000D03*
X247000Y48000D03*
X258000Y37000D03*
X298000Y11000D03*
X309000D03*
G54D12*
X22300Y138000D03*
X223000Y67000D03*
G54D13*
X158300Y194000D03*
Y219600D03*
X176000D03*
X210300Y194000D03*
Y219600D03*
X228000D03*
X245300Y194000D03*
Y219600D03*
X263000D03*
X304000Y79000D03*
X292000D03*
X304000Y119000D03*
X292000D03*
X303000Y133000D03*
X292000D03*
X303000Y173000D03*
X292000D03*
X278300Y194000D03*
Y219600D03*
X296000D03*
G54D14*
X176000Y194000D03*
X228000D03*
X263000D03*
X296000D03*
M02*
