G04 ================== begin FILE IDENTIFICATION RECORD ==================*
G04 Layout Name:  RGB_LED_SHIELD_FINAL.brd*
G04 Film Name:    TOP*
G04 File Format:  Gerber RS274X*
G04 File Origin:  Cadence Allegro 17.2-P019*
G04 Origin Date:  Wed Dec 12 14:17:25 2018*
G04 *
G04 Layer:  ETCH/TOP*
G04 Layer:  PIN/TOP*
G04 Layer:  VIA CLASS/TOP*
G04 *
G04 Offset:    (0.00 0.00)*
G04 Mirror:    No*
G04 Mode:      Positive*
G04 Rotation:  0*
G04 FullContactRelief:  No*
G04 UndefLineWidth:     10.00*
G04 ================== end FILE IDENTIFICATION RECORD ====================*
%FSLAX25Y25*MOIN*%
%IR0*IPPOS*OFA0.00000B0.00000*MIA0B0*SFA1.00000B1.00000*%
%ADD12C,.05*%
%ADD10C,.064*%
%ADD13C,.078*%
%ADD11R,.064X.064*%
%ADD14R,.078X.078*%
%ADD15C,.01*%
G75*
%LPD*%
G75*
G54D10*
X25000Y15000D03*
X29800Y69000D03*
X22300D03*
X29800Y94000D03*
X22300D03*
X29800Y128000D03*
X22300D03*
X29800Y153000D03*
X22300D03*
X25000Y205000D03*
X55000Y15000D03*
X45000D03*
X35000D03*
X57300Y69000D03*
X37300D03*
X57300Y94000D03*
X37300D03*
X57300Y153000D03*
Y128000D03*
X37300D03*
Y153000D03*
X55000Y205000D03*
X45000D03*
X35000D03*
X85000Y15000D03*
X75000D03*
X65000D03*
X92300Y69000D03*
X72300D03*
X64800D03*
X92300Y94000D03*
X72300D03*
X64800D03*
X92300Y128000D03*
Y153000D03*
X72300D03*
X64800D03*
X72300Y128000D03*
X64800D03*
X65000Y205000D03*
X121000Y15000D03*
X111000D03*
X107300Y69000D03*
X99800D03*
X107300Y94000D03*
X99800D03*
X107300Y128000D03*
X99800D03*
X107300Y153000D03*
X99800D03*
X115000Y205000D03*
X105000D03*
X95000D03*
X151000Y15000D03*
X141000D03*
X131000D03*
X144300Y69000D03*
X136800D03*
X129300D03*
X144300Y94000D03*
X136800D03*
X129300D03*
X144300Y153000D03*
X136800D03*
X129300D03*
X144300Y128000D03*
X136800D03*
X129300D03*
X135000Y205000D03*
X125000D03*
X171000Y15000D03*
X161000D03*
X159000Y58000D03*
X180000Y37000D03*
X159000Y88000D03*
Y78000D03*
Y68000D03*
Y118000D03*
Y108000D03*
Y98000D03*
Y148000D03*
Y138000D03*
Y128000D03*
Y178000D03*
Y168000D03*
Y158000D03*
X202000Y58000D03*
X189000Y48000D03*
Y58000D03*
X202000Y88000D03*
Y78000D03*
Y68000D03*
X189000D03*
Y78000D03*
Y88000D03*
X202000Y118000D03*
Y108000D03*
Y98000D03*
X189000D03*
Y108000D03*
Y118000D03*
X202000Y148000D03*
Y138000D03*
Y128000D03*
X189000D03*
Y138000D03*
Y148000D03*
X202000Y178000D03*
Y168000D03*
Y158000D03*
X189000D03*
Y168000D03*
Y178000D03*
X187000Y218000D03*
X241000Y11000D03*
Y22000D03*
X232000Y48000D03*
Y58000D03*
X223000Y37000D03*
X232000Y68000D03*
Y78000D03*
Y88000D03*
Y98000D03*
Y108000D03*
Y118000D03*
Y128000D03*
Y138000D03*
Y148000D03*
Y158000D03*
Y168000D03*
Y178000D03*
X271000Y11000D03*
X261000D03*
X251000D03*
X271000Y22000D03*
X261000D03*
X251000D03*
X247000Y58000D03*
X268000Y37000D03*
X247000Y88000D03*
Y78000D03*
Y68000D03*
Y118000D03*
Y108000D03*
Y98000D03*
Y148000D03*
Y138000D03*
Y128000D03*
Y178000D03*
Y168000D03*
Y158000D03*
X298000Y31000D03*
Y21000D03*
Y41000D03*
X277000Y48000D03*
Y58000D03*
Y68000D03*
Y78000D03*
Y88000D03*
Y98000D03*
Y108000D03*
Y118000D03*
Y128000D03*
Y138000D03*
Y148000D03*
Y158000D03*
Y168000D03*
Y178000D03*
X309000Y31000D03*
Y21000D03*
Y41000D03*
G54D11*
X15000Y15000D03*
Y69000D03*
Y94000D03*
Y128000D03*
Y153000D03*
Y205000D03*
X50000Y69000D03*
Y94000D03*
Y153000D03*
Y128000D03*
X85000Y69000D03*
Y94000D03*
Y128000D03*
Y153000D03*
Y205000D03*
X101000Y15000D03*
X122000Y69000D03*
Y94000D03*
Y153000D03*
Y128000D03*
X159000Y48000D03*
X170000Y37000D03*
X202000Y48000D03*
X213000Y37000D03*
X197000Y218000D03*
X231000Y11000D03*
Y22000D03*
X247000Y48000D03*
X258000Y37000D03*
X298000Y11000D03*
X309000D03*
G54D12*
X22300Y138000D03*
X223000Y67000D03*
G54D13*
X158300Y194000D03*
Y219600D03*
X176000D03*
X210300Y194000D03*
Y219600D03*
X228000D03*
X245300Y194000D03*
Y219600D03*
X263000D03*
X304000Y79000D03*
X292000D03*
X304000Y119000D03*
X292000D03*
X303000Y133000D03*
X292000D03*
X303000Y173000D03*
X292000D03*
X278300Y194000D03*
Y219600D03*
X296000D03*
G54D14*
X176000Y194000D03*
X228000D03*
X263000D03*
X296000D03*
G54D15*
G01X64800Y128000D02*
X69000Y123800D01*
X74500D01*
X76500Y125800D01*
Y130100D01*
X62600Y144000D01*
X15700D01*
X4800Y133100D01*
Y17300D01*
X12800Y9300D01*
X45700D01*
X50700Y14300D01*
Y17100D01*
X57700Y24100D01*
X92362D01*
X97462Y29200D01*
X285300D01*
X292800Y36700D01*
X310640D01*
X313200Y39260D01*
Y42740D01*
X313000Y42940D01*
Y45000D01*
X311500Y46500D01*
Y80500D01*
X307000Y85000D01*
X290400D01*
X284200Y78800D01*
Y78400D01*
X278200Y72400D01*
X278047D01*
X277847Y72200D01*
X251200D01*
X247000Y68000D01*
G01X72300Y128000D02*
X58300Y142000D01*
X16278D01*
X7000Y132722D01*
Y64000D01*
X28700Y42300D01*
X249200D01*
X251200Y44300D01*
Y60200D01*
X249200Y62200D01*
X207800D01*
X202000Y68000D01*
G01X15000Y69000D02*
X9000Y75000D01*
Y132600D01*
X10100Y133700D01*
X38000D01*
X43000Y128700D01*
Y126800D01*
X47500Y122300D01*
X153300D01*
X159000Y128000D01*
G01X29800Y94000D02*
Y85800D01*
X43000Y72600D01*
Y65300D01*
X64500Y43800D01*
X242800D01*
X247000Y48000D01*
G01X15000Y128000D02*
X25000Y118000D01*
X159000D01*
G01X22300Y94000D02*
X30300Y102000D01*
X54000D01*
X57300Y98700D01*
Y94000D01*
G01X29800Y128000D02*
X25600Y132200D01*
X11385D01*
X10500Y131315D01*
Y121501D01*
X18201Y113800D01*
X242800D01*
X247000Y118000D01*
G01X57300Y128000D02*
Y132700D01*
X52000Y138000D01*
X22300D01*
G01Y153000D02*
X26500Y157200D01*
X57300D01*
G01X261000Y11000D02*
X255300Y5300D01*
X114700D01*
X106700Y13300D01*
Y17200D01*
X102900Y21000D01*
X61000D01*
X55000Y15000D01*
G01X45000D02*
X60700Y30700D01*
X279500D01*
X289800Y41000D01*
X298000D01*
G01X37300Y94000D02*
X44500Y86800D01*
Y66200D01*
X58500Y52200D01*
X197800D01*
X202000Y48000D01*
G01X57300Y76000D02*
Y94000D01*
G01X92300Y69000D02*
Y72200D01*
X88500Y76000D01*
X57300D01*
G01Y69000D02*
Y76000D01*
G01X50000Y153000D02*
X55700Y147300D01*
X147500D01*
X153000Y152800D01*
Y158200D01*
X157000Y162200D01*
X161200D01*
X164700Y158700D01*
Y153700D01*
X159000Y148000D01*
G01X37300Y128000D02*
X44500Y120800D01*
X154891D01*
X156291Y122200D01*
X197800D01*
X202000Y118000D01*
G01X57300Y153000D02*
Y157200D01*
G01X92300D02*
X57300D01*
G01X271000Y11000D02*
X263800Y3800D01*
X96200D01*
X85000Y15000D01*
G01X64800Y69000D02*
X80000Y53800D01*
X242800D01*
X247000Y58000D01*
G01X85000Y94000D02*
X91000Y88000D01*
X159000D01*
G01X72300Y69000D02*
X79100Y62200D01*
X197800D01*
X202000Y58000D01*
G01X85000Y128000D02*
X102200Y145200D01*
X148000D01*
X154500Y151700D01*
Y153500D01*
X159000Y158000D01*
G01X72300Y153000D02*
X76500Y148800D01*
X109700D01*
X116000Y155100D01*
Y155200D01*
X143000Y182200D01*
X279200D01*
X282700Y178700D01*
Y157700D01*
X278700Y153700D01*
X207700D01*
X202000Y148000D01*
G01X92300Y94000D02*
X96500Y89800D01*
X126100D01*
X129300Y93000D01*
Y94000D01*
G01Y69000D02*
Y68000D01*
X126100Y64800D01*
X96500D01*
X92300Y69000D01*
G01X107300Y94000D02*
X115500Y102200D01*
X168100D01*
X186500Y83800D01*
X197800D01*
X202000Y88000D01*
G01X99800Y94000D02*
X109500Y103700D01*
X169600D01*
X179600Y93700D01*
X241300D01*
X247000Y88000D01*
G01X107300Y128000D02*
X121500Y142200D01*
X175046D01*
X186546Y153700D01*
X197700D01*
X202000Y158000D01*
G01X99800Y128000D02*
X115500Y143700D01*
X165700D01*
X184200Y162200D01*
X242800D01*
X247000Y158000D01*
G01X187000Y218000D02*
X169400Y200400D01*
X135500D01*
X92300Y157200D01*
G01Y153000D02*
Y157200D01*
G01X107300Y153000D02*
X138000Y183700D01*
X300300D01*
X310000Y174000D01*
Y116000D01*
X306000Y112000D01*
X303100D01*
X284800Y93700D01*
X266000D01*
X254500Y82200D01*
X206200D01*
X202000Y78000D01*
G01X99800Y153000D02*
X107000Y160200D01*
X111539D01*
X136539Y185200D01*
X301800D01*
X312000Y175000D01*
Y115000D01*
X307000Y110000D01*
X303600D01*
X285800Y92200D01*
X273300D01*
X259100Y78000D01*
X247000D01*
G01X115000Y205000D02*
X136000Y226000D01*
X189000D01*
X197000Y218000D01*
G01X231000Y11000D02*
X205500D01*
X195800Y20700D01*
X136700D01*
X131000Y15000D01*
G01X121000D02*
X133700Y27700D01*
X290500D01*
X293800Y31000D01*
X298000D01*
G01X122000Y69000D02*
X135400Y82400D01*
X159700D01*
X163200Y85900D01*
Y93800D01*
X159000Y98000D01*
G01X136800Y69000D02*
X141000Y73200D01*
X162354D01*
X171354Y82200D01*
X198584D01*
X200084Y83700D01*
X248700D01*
X252700Y87700D01*
Y92300D01*
X247000Y98000D01*
G01X144300Y128000D02*
X148500Y132200D01*
X168000D01*
X176500Y123700D01*
X221300D01*
X222800Y122200D01*
X235678D01*
X236378Y121500D01*
X244560D01*
X245260Y122200D01*
X248740D01*
X249440Y121500D01*
X249900D01*
X251200Y120200D01*
Y116200D01*
X247200Y112200D01*
X206200D01*
X202000Y108000D01*
G01X136800Y128000D02*
X142500Y133700D01*
X178200D01*
X186700Y142200D01*
X301800D01*
X308000Y136000D01*
Y128900D01*
X304100Y125000D01*
X301129D01*
X298000Y121871D01*
Y117000D01*
X293200Y112200D01*
X251200D01*
X247000Y108000D01*
G01X136800Y153000D02*
X141000Y148800D01*
X146500D01*
X150000Y152300D01*
Y157700D01*
X156000Y163700D01*
X254500D01*
X268800Y178000D01*
X277000D01*
G01X122000Y153000D02*
X142700Y173700D01*
X184700D01*
X189000Y178000D01*
G01X144300Y153000D02*
Y159700D01*
X156800Y172200D01*
X226200D01*
X232000Y178000D01*
G01X241000Y11000D02*
X236800Y6800D01*
X159200D01*
X151000Y15000D01*
G01X170000Y37000D02*
X174200Y32800D01*
X213000D01*
G01X158300Y194000D02*
X163200Y189100D01*
X228000D01*
G01X189000Y78000D02*
X193200Y73800D01*
X227800D01*
X232000Y78000D01*
G01X189000Y88000D02*
X193200Y92200D01*
X227800D01*
X232000Y88000D01*
G01X189000Y108000D02*
X193200Y103800D01*
X232000D01*
G01X189000Y98000D02*
X193200Y102200D01*
X232000D01*
G01X189000Y128000D02*
X193200Y132200D01*
X283800D01*
X284600Y133000D01*
X292000D01*
G01X189000Y148000D02*
X193200Y143800D01*
X232000D01*
G01X189000Y138000D02*
X193200Y133800D01*
X232000D01*
G01X251000Y22000D02*
X246800Y26200D01*
X238800D01*
X236800Y24200D01*
Y20200D01*
X241800Y15200D01*
X277700D01*
X287600Y5300D01*
X311200D01*
X316000Y10100D01*
Y37816D01*
X316200Y38016D01*
Y43984D01*
X316000Y44184D01*
Y188000D01*
X294600Y209400D01*
X288500D01*
X278300Y219600D01*
G01X223000Y37000D02*
X246200D01*
X252700Y43500D01*
Y50900D01*
X254200Y52400D01*
G01X213000Y32800D02*
X258000D01*
G01X213000Y37000D02*
Y32800D01*
G01X277000Y78000D02*
X272800Y73800D01*
X236200D01*
X232000Y78000D01*
G01X223000Y67000D02*
X226500D01*
X229700Y63800D01*
X250200D01*
X254200Y59800D01*
Y52400D01*
G01X232000Y103800D02*
Y108000D01*
G01X277000D02*
X272800Y103800D01*
X232000D01*
G01X277000Y98000D02*
X272800Y102200D01*
X232000D01*
G01Y98000D02*
Y102200D01*
G01Y128000D02*
X237000Y123000D01*
X243938D01*
X244638Y123700D01*
X249362D01*
X250062Y123000D01*
X284000D01*
X286000Y125000D01*
X295000D01*
X303000Y133000D01*
G01X232000Y148000D02*
Y143800D01*
G01X277000Y148000D02*
X272800Y143800D01*
X232000D01*
G01X277000Y138000D02*
X272800Y133800D01*
X232000D01*
G01D02*
Y138000D01*
G01X228000Y189100D02*
X263000D01*
G01X228000Y194000D02*
Y189100D01*
G01X241000Y22000D02*
X246300Y16700D01*
X292300D01*
X298000Y11000D01*
G01X261000Y22000D02*
X265200Y26200D01*
X310200D01*
X314500Y30500D01*
Y38438D01*
X314700Y38638D01*
Y43362D01*
X314500Y43562D01*
Y45622D01*
X314000Y46122D01*
Y186000D01*
X296600Y203400D01*
X261500D01*
X245300Y219600D01*
G01X277000Y58000D02*
X271390Y52390D01*
X268000D01*
G01Y37000D02*
Y52390D01*
G01D02*
X254210D01*
X254200Y52400D01*
G01X258000Y37000D02*
Y32800D01*
G01X292200Y53800D02*
X271200Y32800D01*
X258000D01*
G01X296000Y194000D02*
X291100Y189100D01*
X263000D01*
G01D02*
Y194000D01*
G01X309000Y41000D02*
X296200Y53800D01*
X292200D01*
G01X292000Y79000D02*
X292200Y78800D01*
Y53800D01*
G01X304000Y119000D02*
X293000Y108000D01*
X277000D01*
G01X292000Y173000D02*
X303000D01*
M02*
